<?xml version="1.0" encoding="UTF-8"?>
<svg xmlns="http://www.w3.org/2000/svg" xmlns:xlink="http://www.w3.org/1999/xlink" viewBox="0 0 280.48 70.19">
  <defs>
    <style>
      .cls-1 {
        fill: url(#linear-gradient-2);
      }

      .cls-2 {
        fill: #fff;
      }

      .cls-3 {
        fill: #0a1c2e;
      }

      .cls-4 {
        fill: url(#linear-gradient-5);
      }

      .cls-4, .cls-5, .cls-6 {
        mix-blend-mode: color-burn;
      }

      .cls-5 {
        fill: url(#linear-gradient-4);
      }

      .cls-6 {
        fill: url(#linear-gradient-3);
      }

      .cls-7 {
        fill: #787878;
      }

      .cls-8 {
        fill: #0098da;
      }

      .cls-9 {
        isolation: isolate;
      }

      .cls-9, .cls-10, .cls-11 {
        fill: none;
      }

      .cls-10 {
        opacity: .91;
      }

      .cls-11 {
        clip-path: url(#clippath);
      }

      .cls-12 {
        fill: url(#linear-gradient);
      }
    </style>
    <clipPath id="clippath">
      <rect class="cls-2" width="280.48" height="70.19"/>
    </clipPath>
    <linearGradient id="linear-gradient" x1="102.87" y1="57.61" x2="302.81" y2="28.5" gradientUnits="userSpaceOnUse">
      <stop offset=".28" stop-color="#0c1e30"/>
      <stop offset="1" stop-color="#000f1f"/>
    </linearGradient>
    <linearGradient id="linear-gradient-2" x1="127.23" y1="15.88" x2="86.54" y2="88.86" gradientUnits="userSpaceOnUse">
      <stop offset="0" stop-color="#00cbf0"/>
      <stop offset=".2" stop-color="#00b2e5"/>
      <stop offset=".62" stop-color="#0075cb"/>
      <stop offset="1" stop-color="#0038b1"/>
    </linearGradient>
    <linearGradient id="linear-gradient-3" x1="160.91" y1="48.47" x2="160.91" y2="-12.57" gradientUnits="userSpaceOnUse">
      <stop offset="0" stop-color="#fff"/>
      <stop offset=".4" stop-color="#f9f9f9"/>
      <stop offset=".94" stop-color="#e8e8e8"/>
      <stop offset="1" stop-color="#e6e6e6"/>
    </linearGradient>
    <linearGradient id="linear-gradient-4" x1="151.43" y1="66.54" x2="151.43" y2="3.8" xlink:href="#linear-gradient-3"/>
    <linearGradient id="linear-gradient-5" x1="-1849.01" y1="-3023.52" x2="-1849.01" y2="-3086.25" gradientTransform="translate(-1696.93 -2986.32) rotate(-180)" gradientUnits="userSpaceOnUse">
      <stop offset="0" stop-color="#fff"/>
      <stop offset=".25" stop-color="#f9f9f9"/>
      <stop offset=".58" stop-color="#e8e8e8"/>
      <stop offset=".96" stop-color="#ccc"/>
      <stop offset="1" stop-color="#c9c9c9"/>
    </linearGradient>
  </defs>
  <g class="cls-9">
    <g id="Camada_2" data-name="Camada 2">
      <g id="Layer_1" data-name="Layer 1">
        <g>
          <g>
            <rect class="cls-2" width="280.48" height="70.19"/>
            <g class="cls-11">
              <g>
                <polygon class="cls-12" points="347.28 91.49 129.08 91.49 63.52 -6.12 281.73 -6.12 347.28 91.49"/>
                <polygon class="cls-1" points="125.43 86.06 136.77 86.06 89.78 16.09 78.45 16.09 125.43 86.06"/>
                <polygon class="cls-6" points="178.79 51.49 209.66 51.49 143.04 -47.72 112.16 -47.72 178.79 51.49"/>
                <polygon class="cls-5" points="169.8 69.64 201.53 69.64 133.05 -32.33 101.32 -32.33 169.8 69.64"/>
                <polygon class="cls-4" points="133.7 34.09 101.97 34.09 170.45 136.06 202.18 136.06 133.7 34.09"/>
              </g>
            </g>
          </g>
          <g>
            <g class="cls-10">
              <path class="cls-8" d="m16.41,35.63v-9.41h2.3c.44,0,.81.04,1.14.12.32.08.61.21.86.38.25.18.44.43.57.75.13.32.19.7.19,1.15,0,1.16-.47,1.81-1.38,1.95.56.11.97.35,1.25.73.27.38.41.91.42,1.6,0,.89-.22,1.57-.67,2.03-.45.46-1.11.7-1.97.7h-2.7Zm1.71-5.57h.53c.5,0,.85-.11,1.04-.32.19-.22.28-.58.28-1.09,0-.27-.03-.48-.09-.64-.06-.16-.17-.29-.31-.37-.15-.08-.31-.14-.49-.17s-.42-.04-.72-.04h-.24v2.63Zm0,4.36h.63c.51,0,.86-.12,1.06-.36.2-.24.3-.63.3-1.18s-.11-.98-.33-1.23c-.22-.26-.59-.38-1.11-.38h-.54v3.16Z"/>
              <path class="cls-8" d="m23.41,35.63l1.91-9.41h1.79l1.91,9.41h-1.59l-.38-2.18h-1.63l-.39,2.18h-1.62Zm2.18-3.3h1.26l-.63-3.86-.63,3.86Z"/>
              <path class="cls-8" d="m30.98,35.63v-9.41h1.18l2.3,5.33v-5.33h1.42v9.41h-1.12l-2.33-5.6v5.6h-1.45Z"/>
              <path class="cls-8" d="m38.34,35.63v-9.41h1.18l2.3,5.33v-5.33h1.42v9.41h-1.12l-2.33-5.6v5.6h-1.45Z"/>
              <path class="cls-8" d="m45.7,35.63v-9.41h3.94v1.21h-2.22v2.7h1.76v1.21h-1.76v3.1h2.25v1.19h-3.97Z"/>
              <path class="cls-8" d="m51.7,35.63v-9.41h2.16c.5,0,.92.04,1.28.12.36.08.67.22.93.41.26.19.46.45.59.78.13.33.2.73.2,1.2,0,.59-.09,1.07-.26,1.45-.18.38-.47.65-.87.82l1.31,4.64h-1.72l-1.12-4.3h-.76v4.3h-1.71Zm1.71-5.39h.41c.51,0,.87-.11,1.08-.32.21-.22.32-.58.32-1.11s-.09-.86-.28-1.08c-.19-.22-.53-.33-1.02-.33h-.52v2.84Z"/>
            </g>
            <g class="cls-10">
              <path class="cls-3" d="m17.17,38.67h-1.44v-1.05h4.19v1.05h-1.43v3.63h-1.32v-3.63Z"/>
              <path class="cls-3" d="m24.34,40.81h-2.63c.05.19.16.33.31.43.15.1.35.15.58.15.17,0,.32-.02.45-.07.13-.05.26-.13.38-.24l.67.7c-.35.39-.87.59-1.54.59-.42,0-.8-.08-1.12-.24-.32-.16-.57-.38-.75-.67s-.26-.61-.26-.97.09-.68.26-.96c.17-.28.41-.5.71-.67.3-.16.64-.24,1.02-.24s.69.07.98.22c.29.15.53.37.7.65.17.28.26.62.26,1.01,0,0,0,.11-.02.31Zm-2.4-1.12c-.13.11-.22.26-.25.45h1.48c-.04-.19-.12-.34-.25-.45-.13-.11-.29-.17-.49-.17s-.36.06-.49.17Z"/>
              <path class="cls-3" d="m31.4,39.02c.27.27.4.67.4,1.21v2.07h-1.27v-1.86c0-.25-.05-.44-.14-.56-.1-.12-.23-.18-.4-.18-.19,0-.35.07-.46.2-.12.13-.17.34-.17.61v1.8h-1.27v-1.86c0-.49-.18-.74-.55-.74-.2,0-.35.07-.47.2-.12.13-.17.34-.17.61v1.8h-1.27v-3.62h1.21v.38c.13-.15.29-.26.48-.33.19-.07.39-.11.61-.11.25,0,.48.05.68.14.2.09.36.24.49.43.14-.18.32-.32.54-.42.22-.1.46-.15.71-.15.45,0,.8.13,1.07.4Z"/>
              <path class="cls-3" d="m36.44,38.85c.27.15.48.37.64.66.16.28.24.61.24.99s-.08.7-.24.99c-.16.28-.37.5-.64.66-.27.15-.57.23-.9.23-.42,0-.76-.13-1.01-.38v1.62h-1.27v-4.92h1.21v.36c.24-.28.59-.42,1.07-.42.33,0,.63.08.9.23Zm-.62,2.27c.14-.15.21-.36.21-.63s-.07-.48-.21-.63c-.14-.15-.33-.23-.55-.23s-.41.08-.55.23c-.14.15-.21.36-.21.63s.07.48.21.63c.14.15.33.23.55.23s.41-.08.55-.23Z"/>
              <path class="cls-3" d="m38.58,37.34h1.27v4.96h-1.27v-4.96Z"/>
              <path class="cls-3" d="m44.26,39.03c.32.27.47.69.47,1.26v2.01h-1.18v-.47c-.18.35-.54.53-1.07.53-.28,0-.52-.05-.73-.15-.2-.1-.36-.23-.46-.4-.1-.17-.16-.36-.16-.57,0-.34.13-.61.39-.8.26-.19.67-.28,1.22-.28h.72c-.02-.38-.28-.58-.77-.58-.17,0-.35.03-.53.08-.18.06-.33.13-.45.23l-.43-.86c.2-.13.44-.24.73-.31.29-.07.58-.11.87-.11.6,0,1.06.14,1.38.41Zm-1.04,2.42c.11-.07.19-.18.24-.31v-.31h-.55c-.37,0-.55.12-.55.37,0,.11.04.2.13.27.08.07.2.1.35.1s.28-.04.39-.11Z"/>
              <path class="cls-3" d="m48.7,42.15c-.11.07-.24.12-.39.15-.15.04-.32.05-.49.05-.47,0-.84-.12-1.09-.35-.25-.23-.38-.58-.38-1.04v-1.22h-.53v-.95h.53v-.94h1.27v.94h.83v.95h-.83v1.2c0,.13.03.23.1.3.07.07.16.11.28.11.15,0,.28-.04.39-.11l.31.89Z"/>
              <path class="cls-3" d="m53.43,40.81h-2.63c.05.19.16.33.31.43.15.1.35.15.58.15.17,0,.32-.02.45-.07.13-.05.26-.13.38-.24l.67.7c-.35.39-.87.59-1.54.59-.42,0-.8-.08-1.12-.24-.32-.16-.57-.38-.75-.67-.18-.29-.26-.61-.26-.97s.09-.68.26-.96c.17-.28.41-.5.71-.67.3-.16.64-.24,1.02-.24s.69.07.98.22c.29.15.53.37.7.65.17.28.26.62.26,1.01,0,0,0,.11-.02.31Zm-2.4-1.12c-.13.11-.22.26-.25.45h1.48c-.04-.19-.12-.34-.25-.45-.13-.11-.29-.17-.49-.17s-.36.06-.49.17Z"/>
            </g>
            <g>
              <path class="cls-7" d="m16.04,44.61h.32v1.97h1.22v.28h-1.54v-2.25Z"/>
              <path class="cls-7" d="m18.48,46.77c-.13-.08-.24-.18-.32-.31-.08-.13-.11-.28-.11-.45s.04-.32.11-.45c.08-.13.18-.24.32-.31.14-.07.29-.11.46-.11s.32.04.46.11c.13.07.24.18.32.31.08.13.11.28.11.45s-.04.32-.11.45c-.08.13-.18.24-.32.31-.13.08-.29.11-.46.11s-.32-.04-.46-.11Zm.75-.23c.09-.05.15-.12.2-.21.05-.09.07-.2.07-.31s-.02-.22-.07-.31c-.05-.09-.12-.16-.2-.21-.09-.05-.18-.07-.29-.07s-.21.03-.29.07c-.09.05-.16.12-.21.21-.05.09-.08.2-.08.31s.03.22.08.31c.05.09.12.16.21.21.09.05.19.08.29.08s.21-.03.29-.08Z"/>
              <path class="cls-7" d="m21.11,45.22c.11-.05.23-.08.38-.08v.3s-.04,0-.07,0c-.17,0-.3.05-.39.15-.1.1-.14.24-.14.43v.85h-.31v-1.71h.3v.29c.05-.1.13-.17.24-.22Z"/>
              <path class="cls-7" d="m23.71,46.12h-1.38c.02.15.09.27.2.36.11.09.25.14.42.14.2,0,.37-.07.49-.21l.17.2c-.08.09-.17.16-.29.21-.11.05-.24.07-.38.07-.18,0-.34-.04-.48-.11-.14-.07-.25-.18-.32-.31s-.11-.28-.11-.45.04-.31.11-.45c.07-.13.18-.24.31-.31.13-.07.28-.11.44-.11s.31.04.44.11c.13.07.23.18.3.31.07.13.11.29.11.46,0,.02,0,.05,0,.09Zm-1.21-.58c-.1.09-.16.21-.18.35h1.09c-.02-.14-.08-.26-.18-.35-.1-.09-.22-.14-.37-.14s-.27.04-.37.13Z"/>
              <path class="cls-7" d="m27.12,45.33c.13.12.19.31.19.55v.98h-.31v-.95c0-.17-.04-.29-.11-.37-.08-.08-.19-.13-.33-.13-.16,0-.28.05-.37.15-.09.1-.14.24-.14.42v.88h-.31v-.95c0-.17-.04-.29-.11-.37-.08-.08-.19-.13-.33-.13-.16,0-.28.05-.37.15-.09.1-.14.24-.14.42v.88h-.31v-1.71h.3v.25c.06-.09.14-.15.24-.2.1-.05.22-.07.34-.07s.25.03.35.08c.1.05.18.13.24.24.06-.1.15-.18.27-.23.11-.06.24-.08.39-.08.21,0,.38.06.51.19Z"/>
              <path class="cls-7" d="m29.39,44.77s-.06-.09-.06-.14.02-.1.06-.14c.04-.04.09-.06.15-.06s.11.02.15.06c.04.04.06.09.06.14s-.02.11-.06.15c-.04.04-.09.06-.15.06s-.11-.02-.15-.06Zm0,.39h.31v1.71h-.31v-1.71Z"/>
              <path class="cls-7" d="m31.95,45.25c.13.07.23.17.31.31.07.13.11.28.11.45s-.04.32-.11.46c-.07.13-.18.23-.31.31-.13.07-.28.11-.44.11-.12,0-.23-.02-.34-.07-.1-.05-.19-.12-.26-.21v.88h-.31v-2.33h.3v.27c.07-.09.16-.17.26-.21.11-.05.22-.07.35-.07.17,0,.31.04.44.11Zm-.18,1.29c.09-.05.16-.12.21-.21.05-.09.08-.2.08-.31s-.03-.22-.08-.31c-.05-.09-.12-.16-.21-.21-.09-.05-.19-.07-.29-.07s-.2.03-.29.08c-.09.05-.16.12-.21.21-.05.09-.08.19-.08.31s.02.22.07.31c.05.09.12.16.21.21.09.05.19.08.29.08s.21-.03.29-.08Z"/>
              <path class="cls-7" d="m33.21,46.83c-.13-.04-.23-.08-.3-.14l.13-.25c.08.05.17.1.27.13.11.03.22.05.33.05.27,0,.41-.08.41-.23,0-.05-.02-.09-.05-.12-.04-.03-.08-.05-.14-.07-.05-.01-.13-.03-.23-.05-.14-.02-.25-.05-.34-.07-.09-.03-.16-.08-.22-.14-.06-.07-.09-.16-.09-.28,0-.16.06-.28.19-.37.13-.09.3-.14.52-.14.11,0,.23.01.34.04.11.03.21.07.28.11l-.13.24c-.14-.09-.3-.13-.49-.13-.13,0-.23.02-.3.06-.07.04-.1.1-.1.17,0,.06.02.1.06.13.04.03.09.06.14.07.06.02.14.03.24.05.14.02.25.05.33.08.08.03.16.07.22.14.06.06.09.15.09.27,0,.16-.07.28-.2.37-.13.09-.31.14-.54.14-.14,0-.27-.02-.4-.06Z"/>
              <path class="cls-7" d="m36.65,45.16v1.71h-.29v-.26c-.06.09-.14.16-.25.2-.1.05-.21.07-.33.07-.23,0-.41-.06-.54-.19-.13-.12-.2-.31-.2-.55v-.98h.31v.95c0,.17.04.29.12.38.08.09.19.13.34.13.16,0,.29-.05.39-.15.09-.1.14-.24.14-.42v-.88h.31Z"/>
              <path class="cls-7" d="m40.2,45.33c.13.12.19.31.19.55v.98h-.31v-.95c0-.17-.04-.29-.11-.37-.08-.08-.19-.13-.33-.13-.16,0-.28.05-.37.15-.09.1-.14.24-.14.42v.88h-.31v-.95c0-.17-.04-.29-.11-.37-.08-.08-.19-.13-.33-.13-.16,0-.28.05-.37.15-.09.1-.14.24-.14.42v.88h-.31v-1.71h.3v.25c.06-.09.14-.15.24-.2.1-.05.22-.07.34-.07s.25.03.35.08c.1.05.18.13.24.24.06-.1.15-.18.27-.23.11-.06.24-.08.39-.08.21,0,.38.06.51.19Z"/>
              <path class="cls-7" d="m44.08,44.48v2.39h-.3v-.27c-.07.09-.16.17-.26.22-.1.05-.22.07-.35.07-.17,0-.31-.04-.44-.11-.13-.07-.23-.18-.31-.31-.07-.13-.11-.28-.11-.46s.04-.32.11-.45c.07-.13.18-.23.31-.31.13-.07.28-.11.44-.11.12,0,.23.02.34.07.1.05.19.11.26.21v-.94h.31Zm-.59,2.06c.09-.05.16-.12.21-.21.05-.09.07-.2.07-.31s-.02-.22-.07-.31c-.05-.09-.12-.16-.21-.21-.09-.05-.19-.07-.29-.07s-.21.03-.29.07c-.09.05-.16.12-.21.21-.05.09-.08.2-.08.31s.03.22.08.31c.05.09.12.16.21.21.09.05.19.08.29.08s.2-.03.29-.08Z"/>
              <path class="cls-7" d="m45.26,46.77c-.13-.08-.24-.18-.32-.31-.08-.13-.11-.28-.11-.45s.04-.32.11-.45.18-.24.32-.31c.14-.07.29-.11.46-.11s.32.04.46.11c.13.07.24.18.32.31s.11.28.11.45-.04.32-.11.45c-.08.13-.18.24-.32.31-.13.08-.29.11-.46.11s-.32-.04-.46-.11Zm.75-.23c.09-.05.15-.12.2-.21.05-.09.07-.2.07-.31s-.02-.22-.07-.31c-.05-.09-.12-.16-.2-.21-.09-.05-.18-.07-.29-.07s-.21.03-.29.07c-.09.05-.16.12-.21.21-.05.09-.08.2-.08.31s.03.22.08.31c.05.09.12.16.21.21.09.05.19.08.29.08s.21-.03.29-.08Z"/>
              <path class="cls-7" d="m47.35,44.48h.31v2.39h-.31v-2.39Z"/>
              <path class="cls-7" d="m48.85,46.77c-.13-.08-.24-.18-.32-.31-.08-.13-.11-.28-.11-.45s.04-.32.11-.45.18-.24.32-.31c.14-.07.29-.11.46-.11s.32.04.46.11c.13.07.24.18.32.31.08.13.11.28.11.45s-.04.32-.11.45c-.08.13-.18.24-.32.31-.13.08-.29.11-.46.11s-.32-.04-.46-.11Zm.75-.23c.09-.05.15-.12.2-.21.05-.09.07-.2.07-.31s-.02-.22-.07-.31c-.05-.09-.12-.16-.2-.21-.09-.05-.19-.07-.29-.07s-.21.03-.29.07c-.09.05-.16.12-.21.21-.05.09-.08.2-.08.31s.03.22.08.31c.05.09.12.16.21.21.09.05.19.08.29.08s.21-.03.29-.08Z"/>
              <path class="cls-7" d="m51.47,45.22c.11-.05.23-.08.38-.08v.3s-.04,0-.07,0c-.17,0-.3.05-.39.15-.1.1-.14.24-.14.43v.85h-.31v-1.71h.3v.29c.05-.1.13-.17.24-.22Z"/>
              <path class="cls-7" d="m53.86,46.83c-.13-.04-.23-.08-.3-.14l.13-.25c.08.05.17.1.27.13.11.03.22.05.33.05.27,0,.41-.08.41-.23,0-.05-.02-.09-.05-.12-.04-.03-.08-.05-.14-.07-.05-.01-.13-.03-.23-.05-.14-.02-.25-.05-.34-.07-.09-.03-.16-.08-.22-.14-.06-.07-.09-.16-.09-.28,0-.16.06-.28.19-.37.13-.09.3-.14.52-.14.11,0,.23.01.34.04.11.03.21.07.28.11l-.13.24c-.14-.09-.3-.13-.49-.13-.13,0-.23.02-.3.06-.07.04-.1.1-.1.17,0,.06.02.1.06.13.04.03.09.06.14.07.06.02.14.03.24.05.14.02.25.05.33.08.08.03.16.07.22.14.06.06.09.15.09.27,0,.16-.07.28-.2.37-.13.09-.31.14-.54.14-.14,0-.27-.02-.4-.06Z"/>
              <path class="cls-7" d="m55.71,44.77s-.06-.09-.06-.14.02-.1.06-.14c.04-.04.09-.06.15-.06s.11.02.15.06c.04.04.06.09.06.14s-.02.11-.06.15c-.04.04-.09.06-.15.06s-.11-.02-.15-.06Zm0,.39h.31v1.71h-.31v-1.71Z"/>
              <path class="cls-7" d="m57.88,46.77s-.1.07-.17.09-.14.03-.21.03c-.17,0-.3-.05-.4-.14-.09-.09-.14-.22-.14-.4v-.94h-.29v-.25h.29v-.37h.31v.37h.49v.25h-.49v.92c0,.09.02.16.07.21.05.05.11.07.2.07.09,0,.17-.03.24-.08l.1.22Z"/>
              <path class="cls-7" d="m60.93,45.32c.13.12.19.29.19.52v1.03h-.29v-.23c-.05.08-.12.14-.22.18-.1.04-.21.06-.34.06-.19,0-.34-.05-.46-.14-.11-.09-.17-.21-.17-.36s.05-.27.16-.36c.11-.09.28-.14.52-.14h.49v-.06c0-.13-.04-.24-.12-.31-.08-.07-.19-.11-.34-.11-.1,0-.2.02-.3.05-.1.03-.18.08-.24.13l-.13-.23c.09-.07.19-.12.32-.16.12-.04.25-.06.39-.06.24,0,.42.06.54.17Zm-.31,1.25c.09-.05.15-.13.19-.22v-.24h-.48c-.26,0-.39.09-.39.26,0,.09.03.15.1.2.07.05.16.07.28.07s.22-.03.31-.08Z"/>
              <path class="cls-7" d="m64.66,45.33c.13.12.19.31.19.55v.98h-.31v-.95c0-.17-.04-.29-.11-.37-.08-.08-.19-.13-.33-.13-.16,0-.28.05-.37.15-.09.1-.14.24-.14.42v.88h-.31v-.95c0-.17-.04-.29-.11-.37-.08-.08-.19-.13-.33-.13-.16,0-.28.05-.37.15-.09.1-.14.24-.14.42v.88h-.31v-1.71h.3v.25c.06-.09.14-.15.24-.2.1-.05.22-.07.34-.07s.25.03.35.08c.1.05.18.13.24.24.06-.1.15-.18.27-.23.11-.06.24-.08.39-.08.21,0,.38.06.51.19Z"/>
              <path class="cls-7" d="m67.29,46.12h-1.38c.02.15.09.27.2.36.11.09.25.14.42.14.2,0,.37-.07.49-.21l.17.2c-.08.09-.17.16-.29.21-.11.05-.24.07-.38.07-.18,0-.34-.04-.48-.11-.14-.07-.25-.18-.32-.31s-.11-.28-.11-.45.04-.31.11-.45c.07-.13.18-.24.31-.31.13-.07.28-.11.44-.11s.31.04.44.11c.13.07.23.18.3.31.07.13.11.29.11.46,0,.02,0,.05,0,.09Zm-1.21-.58c-.1.09-.16.21-.18.35h1.09c-.02-.14-.08-.26-.18-.35-.1-.09-.22-.14-.37-.14s-.27.04-.37.13Z"/>
              <path class="cls-7" d="m69,46.77s-.1.07-.17.09c-.07.02-.14.03-.21.03-.17,0-.3-.05-.4-.14-.09-.09-.14-.22-.14-.4v-.94h-.29v-.25h.29v-.37h.31v.37h.49v.25h-.49v.92c0,.09.02.16.07.21.05.05.11.07.2.07.09,0,.17-.03.24-.08l.1.22Z"/>
            </g>
          </g>
        </g>
      </g>
    </g>
  </g>
</svg>